<svg version="1.1" id="Layer_1" xmlns="http://www.w3.org/2000/svg" xmlns:xlink="http://www.w3.org/1999/xlink" x="0px" y="0px"
	 width="100%" viewBox="0 0 1200 1200" enable-background="new 0 0 1200 1200" xml:space="preserve">
<path fill="#AB9FF2" opacity="1.000000" stroke="none" 
	d="
M1.000002,882.000000 
	C1.000000,694.641785 1.000000,507.283539 1.351976,319.803619 
	C2.134790,318.667511 2.871771,317.676361 2.950971,316.635193 
	C4.347697,298.273254 5.465169,279.887756 7.074711,261.545227 
	C8.001055,250.988525 9.026763,240.360428 11.175164,230.006699 
	C16.704184,203.360794 24.225492,177.447922 37.699024,153.367554 
	C50.290108,130.864304 65.218521,110.180092 83.062096,91.816307 
	C94.690453,79.848953 107.747124,69.144844 120.901772,58.814365 
	C140.594681,43.349304 162.329468,31.279755 186.053299,22.937317 
	C207.864105,15.267596 230.282761,10.403120 253.248917,8.010554 
	C266.932648,6.585015 280.623474,5.203485 294.332062,4.051285 
	C301.733521,3.429197 309.182831,3.390915 316.599304,2.913927 
	C317.437103,2.860044 318.201538,1.665568 319.000000,0.999999 
	C506.358246,1.000000 693.716492,1.000000 881.200195,1.354599 
	C882.174438,2.137111 883.000977,2.884869 883.875122,2.945391 
	C899.299255,4.013286 914.757019,4.691265 930.149536,6.091311 
	C943.785706,7.331594 957.513245,8.537604 970.912598,11.204868 
	C997.571594,16.511581 1023.436218,24.172405 1047.491699,37.616039 
	C1070.132202,50.268940 1090.725708,65.499832 1109.451782,83.212105 
	C1118.623169,91.887047 1126.577515,101.869087 1134.890625,111.426468 
	C1147.201172,125.579292 1157.250244,141.348114 1165.873169,157.902115 
	C1180.302002,185.602127 1188.436768,215.317520 1191.980591,246.291153 
	C1194.117920,264.971924 1196.356079,283.653107 1197.871216,302.388916 
	C1198.870850,314.751221 1198.676147,327.210693 1198.991211,339.627289 
	C1199.054565,342.123749 1198.864502,344.636261 1199.098389,347.112366 
	C1199.162964,347.795380 1200.335693,348.373657 1201.000000,349.000000 
	C1201.000000,516.358215 1201.000000,683.716492 1200.647827,851.196655 
	C1199.863892,852.665833 1199.111816,853.998413 1199.049194,855.362610 
	C1198.306641,871.537354 1197.948608,887.734741 1196.917114,903.889648 
	C1195.977539,918.605103 1194.692749,933.319458 1192.896118,947.952759 
	C1191.353516,960.518066 1189.529053,973.121216 1186.661621,985.435669 
	C1181.632935,1007.031677 1174.251831,1027.767700 1163.444336,1047.364868 
	C1150.913208,1070.087402 1135.795044,1090.857422 1117.803589,1109.314331 
	C1106.039429,1121.382690 1092.934448,1132.289795 1079.597290,1142.644531 
	C1060.079346,1157.797852 1038.620117,1169.820801 1015.182800,1178.004761 
	C995.393982,1184.914429 975.132629,1189.839966 954.249268,1192.033691 
	C935.378723,1194.015991 916.541687,1196.439697 897.629150,1197.858643 
	C883.596802,1198.911255 869.466858,1198.656006 855.381409,1199.020996 
	C854.258484,1199.050171 853.131104,1199.329102 852.040588,1199.621948 
	C851.913025,1199.656128 852.008118,1200.520508 852.000000,1201.000000 
	C684.641785,1201.000000 517.283508,1201.000000 349.803162,1200.647705 
	C348.334259,1199.863647 347.001434,1199.110596 345.638550,1199.051758 
	C335.725433,1198.622681 325.795898,1198.516357 315.891357,1197.957275 
	C301.119202,1197.123291 286.336426,1196.290161 271.608246,1194.918823 
	C257.806519,1193.633789 243.917267,1192.437012 230.337082,1189.805420 
	C203.796005,1184.662476 178.050415,1177.046021 154.127365,1163.759155 
	C129.993439,1150.355347 108.071548,1134.106201 88.529526,1114.777466 
	C78.989815,1105.341797 70.352028,1094.906372 62.007820,1084.367920 
	C43.273739,1060.707275 28.704872,1034.748169 19.884266,1005.687561 
	C14.169556,986.859680 10.048665,967.738953 8.035137,948.186523 
	C6.507865,933.356018 5.266354,918.494934 4.029834,903.636414 
	C3.510674,897.397888 3.413716,891.124634 2.916979,884.883667 
	C2.836932,883.877991 1.666431,882.959045 1.000002,882.000000 
M1027.682739,366.854797 
	C1026.827393,364.866394 1025.983276,362.873047 1025.114990,360.890289 
	C1010.855164,328.327301 990.924988,299.965546 963.038940,277.578796 
	C937.292847,256.910004 908.151245,243.584000 876.074585,235.616302 
	C852.786621,229.831665 829.251953,228.007965 805.528503,227.060181 
	C797.430359,226.736649 789.285522,227.852112 781.157837,227.946747 
	C756.160706,228.237747 731.663269,232.248489 707.362610,237.675766 
	C658.781738,248.525726 612.877075,266.542542 568.822327,289.531952 
	C496.298706,327.377533 431.720856,376.138824 373.724731,433.493347 
	C349.489227,457.460815 326.559265,482.900146 304.603455,508.989624 
	C257.933197,564.446594 219.105911,625.052368 189.712662,691.484619 
	C168.836380,738.667542 153.937653,787.562683 150.266510,839.229980 
	C148.739334,860.723145 149.548981,882.336060 155.015854,903.586121 
	C165.516144,944.401428 190.301453,967.650452 231.618591,974.187866 
	C262.169769,979.021790 291.955780,975.109070 321.050568,965.366638 
	C361.678284,951.762390 395.802429,927.669739 426.614746,898.562378 
	C455.686249,871.099426 480.403900,839.951172 502.759033,806.873962 
	C503.787842,805.351746 504.906830,803.890503 505.983826,802.400879 
	C506.490936,804.533508 506.103088,806.107422 505.669800,807.668823 
	C499.421570,830.184326 496.050201,852.708008 502.707428,875.906799 
	C512.692200,910.701538 539.142029,925.610046 570.697205,927.888550 
	C593.897034,929.563782 615.999268,924.009644 637.161316,914.875244 
	C681.583740,895.700684 716.501099,864.631165 745.901245,826.871704 
	C751.984131,819.059265 757.419373,810.742615 763.731384,801.843018 
	C763.731384,803.886292 763.870850,804.965881 763.709534,805.998535 
	C762.281982,815.138672 760.196228,824.063660 761.862305,833.599548 
	C764.580139,849.155334 770.570679,862.278137 785.092529,869.945496 
	C800.519775,878.091003 817.051208,878.454102 833.747681,875.478271 
	C864.889832,869.927856 890.220215,853.379395 912.999084,832.437683 
	C946.063599,802.039673 970.730164,765.367554 990.929749,725.618286 
	C1011.295898,685.541138 1026.649048,643.637085 1036.502686,599.624695 
	C1041.632568,576.711670 1045.428223,553.695984 1047.905640,530.414978 
	C1050.980469,501.519623 1050.301514,472.615143 1046.830688,443.821716 
	C1043.678467,417.671112 1037.862305,392.096436 1027.682739,366.854797 
z"/>
<path fill="#000000" opacity="1.000000" stroke="none" 
	d="
M852.468628,1201.000000 
	C852.008118,1200.520508 851.913025,1199.656128 852.040588,1199.621948 
	C853.131104,1199.329102 854.258484,1199.050171 855.381409,1199.020996 
	C869.466858,1198.656006 883.596802,1198.911255 897.629150,1197.858643 
	C916.541687,1196.439697 935.378723,1194.015991 954.249268,1192.033691 
	C975.132629,1189.839966 995.393982,1184.914429 1015.182800,1178.004761 
	C1038.620117,1169.820801 1060.079346,1157.797852 1079.597290,1142.644531 
	C1092.934448,1132.289795 1106.039429,1121.382690 1117.803589,1109.314331 
	C1135.795044,1090.857422 1150.913208,1070.087402 1163.444336,1047.364868 
	C1174.251831,1027.767700 1181.632935,1007.031677 1186.661621,985.435669 
	C1189.529053,973.121216 1191.353516,960.518066 1192.896118,947.952759 
	C1194.692749,933.319458 1195.977539,918.605103 1196.917114,903.889648 
	C1197.948608,887.734741 1198.306641,871.537354 1199.049194,855.362610 
	C1199.111816,853.998413 1199.863892,852.665833 1200.647827,851.659302 
	C1201.000000,968.260376 1201.000000,1084.520752 1201.000000,1201.000000 
	C1084.979248,1201.000000 968.958252,1201.000000 852.468628,1201.000000 
z"/>
<path fill="#000000" opacity="1.000000" stroke="none" 
	d="
M1201.000000,348.531342 
	C1200.335693,348.373657 1199.162964,347.795380 1199.098389,347.112366 
	C1198.864502,344.636261 1199.054565,342.123749 1198.991211,339.627289 
	C1198.676147,327.210693 1198.870850,314.751221 1197.871216,302.388916 
	C1196.356079,283.653107 1194.117920,264.971924 1191.980591,246.291153 
	C1188.436768,215.317520 1180.302002,185.602127 1165.873169,157.902115 
	C1157.250244,141.348114 1147.201172,125.579292 1134.890625,111.426468 
	C1126.577515,101.869087 1118.623169,91.887047 1109.451782,83.212105 
	C1090.725708,65.499832 1070.132202,50.268940 1047.491699,37.616039 
	C1023.436218,24.172405 997.571594,16.511581 970.912598,11.204868 
	C957.513245,8.537604 943.785706,7.331594 930.149536,6.091311 
	C914.757019,4.691265 899.299255,4.013286 883.875122,2.945391 
	C883.000977,2.884869 882.174438,2.137111 881.662842,1.354599 
	C988.263550,1.000000 1094.527100,1.000000 1201.000000,1.000000 
	C1201.000000,116.687477 1201.000000,232.375076 1201.000000,348.531342 
z"/>
<path fill="#000000" opacity="1.000000" stroke="none" 
	d="
M1.000002,882.468628 
	C1.666431,882.959045 2.836932,883.877991 2.916979,884.883667 
	C3.413716,891.124634 3.510674,897.397888 4.029834,903.636414 
	C5.266354,918.494934 6.507865,933.356018 8.035137,948.186523 
	C10.048665,967.738953 14.169556,986.859680 19.884266,1005.687561 
	C28.704872,1034.748169 43.273739,1060.707275 62.007820,1084.367920 
	C70.352028,1094.906372 78.989815,1105.341797 88.529526,1114.777466 
	C108.071548,1134.106201 129.993439,1150.355347 154.127365,1163.759155 
	C178.050415,1177.046021 203.796005,1184.662476 230.337082,1189.805420 
	C243.917267,1192.437012 257.806519,1193.633789 271.608246,1194.918823 
	C286.336426,1196.290161 301.119202,1197.123291 315.891357,1197.957275 
	C325.795898,1198.516357 335.725433,1198.622681 345.638550,1199.051758 
	C347.001434,1199.110596 348.334259,1199.863647 349.340515,1200.647705 
	C233.076111,1201.000000 117.152206,1201.000000 1.000000,1201.000000 
	C1.000000,1094.979248 1.000000,988.958252 1.000002,882.468628 
z"/>
<path fill="#000000" opacity="1.000000" stroke="none" 
	d="
M318.531342,0.999999 
	C318.201538,1.665568 317.437103,2.860044 316.599304,2.913927 
	C309.182831,3.390915 301.733521,3.429197 294.332062,4.051285 
	C280.623474,5.203485 266.932648,6.585015 253.248917,8.010554 
	C230.282761,10.403120 207.864105,15.267596 186.053299,22.937317 
	C162.329468,31.279755 140.594681,43.349304 120.901772,58.814365 
	C107.747124,69.144844 94.690453,79.848953 83.062096,91.816307 
	C65.218521,110.180092 50.290108,130.864304 37.699024,153.367554 
	C24.225492,177.447922 16.704184,203.360794 11.175164,230.006699 
	C9.026763,240.360428 8.001055,250.988525 7.074711,261.545227 
	C5.465169,279.887756 4.347697,298.273254 2.950971,316.635193 
	C2.871771,317.676361 2.134790,318.667511 1.351976,319.340973 
	C1.000000,213.072937 1.000000,107.145874 1.000000,1.000000 
	C106.687462,1.000000 212.375076,1.000000 318.531342,0.999999 
z"/>
<path fill="#FFFDF8" opacity="1.000000" stroke="none" 
	d="
M1027.810669,367.218628 
	C1037.862305,392.096436 1043.678467,417.671112 1046.830688,443.821716 
	C1050.301514,472.615143 1050.980469,501.519623 1047.905640,530.414978 
	C1045.428223,553.695984 1041.632568,576.711670 1036.502686,599.624695 
	C1026.649048,643.637085 1011.295898,685.541138 990.929749,725.618286 
	C970.730164,765.367554 946.063599,802.039673 912.999084,832.437683 
	C890.220215,853.379395 864.889832,869.927856 833.747681,875.478271 
	C817.051208,878.454102 800.519775,878.091003 785.092529,869.945496 
	C770.570679,862.278137 764.580139,849.155334 761.862305,833.599548 
	C760.196228,824.063660 762.281982,815.138672 763.709534,805.998535 
	C763.870850,804.965881 763.731384,803.886292 763.731384,801.843018 
	C757.419373,810.742615 751.984131,819.059265 745.901245,826.871704 
	C716.501099,864.631165 681.583740,895.700684 637.161316,914.875244 
	C615.999268,924.009644 593.897034,929.563782 570.697205,927.888550 
	C539.142029,925.610046 512.692200,910.701538 502.707428,875.906799 
	C496.050201,852.708008 499.421570,830.184326 505.669800,807.668823 
	C506.103088,806.107422 506.490936,804.533508 505.983826,802.400879 
	C504.906830,803.890503 503.787842,805.351746 502.759033,806.873962 
	C480.403900,839.951172 455.686249,871.099426 426.614746,898.562378 
	C395.802429,927.669739 361.678284,951.762390 321.050568,965.366638 
	C291.955780,975.109070 262.169769,979.021790 231.618591,974.187866 
	C190.301453,967.650452 165.516144,944.401428 155.015854,903.586121 
	C149.548981,882.336060 148.739334,860.723145 150.266510,839.229980 
	C153.937653,787.562683 168.836380,738.667542 189.712662,691.484619 
	C219.105911,625.052368 257.933197,564.446594 304.603455,508.989624 
	C326.559265,482.900146 349.489227,457.460815 373.724731,433.493347 
	C431.720856,376.138824 496.298706,327.377533 568.822327,289.531952 
	C612.877075,266.542542 658.781738,248.525726 707.362610,237.675766 
	C731.663269,232.248489 756.160706,228.237747 781.157837,227.946747 
	C789.285522,227.852112 797.430359,226.736649 805.528503,227.060181 
	C829.251953,228.007965 852.786621,229.831665 876.074585,235.616302 
	C908.151245,243.584000 937.292847,256.910004 963.038940,277.578796 
	C990.924988,299.965546 1010.855164,328.327301 1025.114990,360.890289 
	C1025.983276,362.873047 1026.827393,364.866394 1027.810669,367.218628 
M691.641907,531.839050 
	C716.052185,556.790833 756.311157,551.157288 771.386169,519.991943 
	C781.674316,498.722931 781.256531,476.207001 772.546387,454.616425 
	C763.792358,432.917297 745.950378,423.474182 721.187805,425.010803 
	C703.434509,426.112518 687.025269,439.866791 680.697021,459.536987 
	C676.917419,471.285339 674.954956,483.223816 676.847229,495.795258 
	C678.820618,508.905884 682.530884,521.027161 691.641907,531.839050 
M880.513489,424.998993 
	C860.180664,423.855621 841.900574,437.574799 834.965820,456.698395 
	C828.590515,474.279449 827.982849,492.147461 833.184448,510.113586 
	C836.725830,522.345337 843.319763,532.674377 854.212341,539.553528 
	C881.331848,556.680603 915.945129,544.956604 927.125183,514.883118 
	C932.817200,499.571991 932.856812,483.896454 930.165100,467.835632 
	C926.264038,444.558472 906.474548,423.671844 880.513489,424.998993 
z"/>
<path fill="#AB9FF2" opacity="1.000000" stroke="none" 
	d="
M691.401001,531.578857 
	C682.530884,521.027161 678.820618,508.905884 676.847229,495.795258 
	C674.954956,483.223816 676.917419,471.285339 680.697021,459.536987 
	C687.025269,439.866791 703.434509,426.112518 721.187805,425.010803 
	C745.950378,423.474182 763.792358,432.917297 772.546387,454.616425 
	C781.256531,476.207001 781.674316,498.722931 771.386169,519.991943 
	C756.311157,551.157288 716.052185,556.790833 691.401001,531.578857 
z"/>
<path fill="#AB9FF2" opacity="1.000000" stroke="none" 
	d="
M880.996948,424.999084 
	C906.474548,423.671844 926.264038,444.558472 930.165100,467.835632 
	C932.856812,483.896454 932.817200,499.571991 927.125183,514.883118 
	C915.945129,544.956604 881.331848,556.680603 854.212341,539.553528 
	C843.319763,532.674377 836.725830,522.345337 833.184448,510.113586 
	C827.982849,492.147461 828.590515,474.279449 834.965820,456.698395 
	C841.900574,437.574799 860.180664,423.855621 880.996948,424.999084 
z"/>
</svg>